# xmcd
#
# Track frame offsets:
#	150
#	16416
#	35246
#	53843
#	72144
#	91019
#	109282
#	127990
#	144330
#	159794
#	178648
#	196189
#	210785
#	231382
#	246945
#	269275
#	288318
#	304295
#	321889
#	338750
#
# Disc length: 4756 seconds
#
# Revision: 2
# Processed by: cddbd v1.5.2PL0 Copyright (c) Steve Scherf et al.
# Submitted via: audiograbber 1.83.01
#
DISCID=17129214
DTITLE=Various Artist - 101 R&B Hits [Disc 3]
DYEAR=2012
DGENRE=R&B
TTITLE0=Alicia Keys - Empire State Of Mind Part II: Broken Down
TTITLE1=Kelly Rowland - Stole
TTITLE2=Corinne Bailey Rae - I'd Like To
TTITLE3=Sean Kingston - Beautiful Girls
TTITLE4=Mario - Let Me Love You
TTITLE5=D'Angelo - Brown Sugar (Radio Edit)
TTITLE6=Cassidy featuring R. Kelly and Trina - Hotel
TTITLE7=Jay Sean - Stolen (Radio Edit)
TTITLE8=Bow Wow featuring Ciara - Like You
TTITLE9=Jennifer Hudson - Spotlight
TTITLE10=Jordin Sparks - Tattoo
TTITLE11=Jamelia - Thank You
TTITLE12=J. Holiday - Bed
TTITLE13=Brooke Valentine - Long As You Come Home
TTITLE14=Another Level - Freak Me
TTITLE15=Spearhead - Hole In The Bucket (LP Version Edit)
TTITLE16=Beverley Knight - Shoulda Woulda Coulda
TTITLE17=Joe - Stutter
TTITLE18=Roll Deep featuring Jodie Connor - Good Times
TTITLE19=LeToya - Torn (Edit)
EXTD=
EXTT0=
EXTT1=
EXTT2=
EXTT3=
EXTT4=
EXTT5=
EXTT6=
EXTT7=
EXTT8=
EXTT9=
EXTT10=
EXTT11=
EXTT12=
EXTT13=
EXTT14=
EXTT15=
EXTT16=
EXTT17=
EXTT18=
EXTT19=
PLAYORDER=
